<svg width="42" height="34" viewBox="0 0 42 34" fill="none" xmlns="http://www.w3.org/2000/svg">
<g clip-path="url(#clip0_13_270)">
<path d="M39.4429 15.1941L41.86 12.7647L39.4429 10.3476L37.4376 12.3529H33.4353L37.2812 0.823529H41.4894V0H31.6071V0.823529H35.5394L31.7059 12.3529H27.0324V5.90059H28.0947V5.07706H24.3188V5.90059H25.3853V12.3529H16.6888V5.90059H17.7512V5.07706H14V5.90059H15.0624V12.3529H10.3724L6.52647 0.823529H10.4588V0H0.576471V0.823529H4.78882L8.64706 12.3529H4.42235L2.41706 10.36L0 12.7647L2.41706 15.1941L4.42235 13.1765H8.91059L15.7171 33.6082L20.9547 22.9394L26.3529 33.5671L33.1594 13.1765H37.4376L39.4429 15.1941ZM2.41706 14.0288L1.18176 12.7935L2.41706 11.5582L3.24059 12.3818H2.62706V13.2053H3.25706L2.41706 14.0288ZM25.3853 13.2053V16.7671H16.6888V13.1765L25.3853 13.2053ZM15.0418 13.1765V16.7382H14V18.3853H15.0624V26.3529L10.6482 13.1765H15.0418ZM20.9259 19.2541L16.6888 27.9012V18.3976H25.3853V28L20.9259 19.2541ZM27.0324 26.3529V18.3976H28.0947V16.7506H27.0324V13.1765H31.4218L27.0324 26.3529ZM39.4429 11.5294L40.6782 12.7647L39.4429 14L38.6194 13.1765H39.4429V12.3529H38.6194L39.4429 11.5294Z" fill="white"/>
</g>
<defs>
<clipPath id="clip0_13_270">
<rect width="42" height="33.7647" fill="white"/>
</clipPath>
</defs>
</svg>
