<svg width="77" height="77" viewBox="0 0 77 77" fill="none" xmlns="http://www.w3.org/2000/svg">
<path d="M62.7124 36.5353L65.82 33.4118L62.7124 30.3041L60.1341 32.8824H54.9882L59.9329 18.0588H65.3435V17H52.6376V18.0588H57.6935L52.7647 32.8824H46.7559V24.5865H48.1218V23.5276H43.2671V24.5865H44.6382V32.8824H33.4571V24.5865H34.8229V23.5276H30V24.5865H31.3659V32.8824H25.3359L20.3912 18.0588H25.4471V17H12.7412V18.0588H18.1571L23.1176 32.8824H17.6859L15.1076 30.32L12 33.4118L15.1076 36.5353L17.6859 33.9412H23.4565L32.2076 60.2106L38.9418 46.4935L45.8824 60.1576L54.6335 33.9412H60.1341L62.7124 36.5353ZM15.1076 35.0371L13.5194 33.4488L15.1076 31.8606L16.1665 32.9194H15.3776V33.9782H16.1876L15.1076 35.0371ZM44.6382 33.9782V38.5576H33.4571V33.9412L44.6382 33.9782ZM31.3394 33.9412V38.5206H30V40.6382H31.3659V50.8824L25.6906 33.9412H31.3394ZM38.9047 41.7553L33.4571 52.8729V40.6541H44.6382V53L38.9047 41.7553ZM46.7559 50.8824V40.6541H48.1218V38.5365H46.7559V33.9412H52.3994L46.7559 50.8824ZM62.7124 31.8235L64.3006 33.4118L62.7124 35L61.6535 33.9412H62.7124V32.8824H61.6535L62.7124 31.8235Z" fill="url(#paint0_linear_51_125)"/>
<defs>
<linearGradient id="paint0_linear_51_125" x1="38.91" y1="17" x2="38.91" y2="60.2106" gradientUnits="userSpaceOnUse">
<stop stop-color="#E8DE82"/>
<stop offset="1" stop-color="#775011"/>
</linearGradient>
</defs>
</svg>
